<?xml version="1.0" encoding="UTF-8" standalone="no"?>
<!DOCTYPE svg PUBLIC "-//W3C//DTD SVG 1.1//EN" "http://www.w3.org/Graphics/SVG/1.1/DTD/svg11.dtd">
<svg width="100%" height="100%" viewBox="0 0 1024 1024" version="1.1" xmlns="http://www.w3.org/2000/svg" xmlns:xlink="http://www.w3.org/1999/xlink" xml:space="preserve" xmlns:serif="http://www.serif.com/" style="fill-rule:evenodd;clip-rule:evenodd;stroke-linejoin:round;stroke-miterlimit:2;">
    <g id="logo">
        <path d="M768.154,330.615l0,168.923c0,93.995 -76.312,170.308 -170.308,170.308l-365.538,0c-93.995,0 -170.308,-76.312 -170.308,-170.308l0,-168.923c0,-93.995 76.312,-170.308 170.308,-170.308l365.538,0c93.995,0 170.308,76.312 170.308,170.308Z" style="fill:#f5e05e;"/>
        <path d="M962,524.462l0,168.923c0,93.995 -76.312,170.308 -170.308,170.308l-365.538,0c-93.995,0 -170.308,-76.312 -170.308,-170.308l0,-168.923c0,-93.995 76.312,-170.308 170.308,-170.308l365.538,0c93.995,0 170.308,76.312 170.308,170.308Z" style="fill:#317c92;"/>
        <path d="M865.077,427.538l0,168.923c0,93.995 -76.312,170.308 -170.308,170.308l-365.538,0c-93.995,0 -170.308,-76.312 -170.308,-170.308l0,-168.923c0,-93.995 76.312,-170.308 170.308,-170.308l365.538,0c93.995,0 170.308,76.312 170.308,170.308Z" style="fill:#ef5ec7;"/>
    </g>
</svg>
