<?xml version="1.0" encoding="UTF-8" standalone="no"?>
<!DOCTYPE svg PUBLIC "-//W3C//DTD SVG 1.1//EN" "http://www.w3.org/Graphics/SVG/1.1/DTD/svg11.dtd">
<svg width="100%" height="100%" viewBox="0 0 896 754" version="1.1" xmlns="http://www.w3.org/2000/svg" xmlns:xlink="http://www.w3.org/1999/xlink" xml:space="preserve" xmlns:serif="http://www.serif.com/" style="fill-rule:evenodd;clip-rule:evenodd;stroke-linejoin:round;stroke-miterlimit:2;">
    <g id="logo">
        <path d="M756,122.8l0,368.4c0,67.775 -55.025,122.8 -122.8,122.8l-510.4,0c-67.775,0 -122.8,-55.025 -122.8,-122.8l0,-368.4c0,-67.775 55.025,-122.8 122.8,-122.8l510.4,0c67.775,0 122.8,55.025 122.8,122.8Z" style="fill:#f7ebe8;"/>
        <path d="M896,262.8l0,368.4c0,67.775 -55.025,122.8 -122.8,122.8l-510.4,0c-67.775,0 -122.8,-55.025 -122.8,-122.8l0,-368.4c0,-67.775 55.025,-122.8 122.8,-122.8l510.4,0c67.775,0 122.8,55.025 122.8,122.8Z" style="fill:#e54b4b;"/>
        <path d="M826,192.8l0,368.4c0,67.775 -55.025,122.8 -122.8,122.8l-510.4,0c-67.775,0 -122.8,-55.025 -122.8,-122.8l0,-368.4c0,-67.775 55.025,-122.8 122.8,-122.8l510.4,0c67.775,0 122.8,55.025 122.8,122.8Z" style="fill:#6b9fa5;"/>
    </g>
</svg>
